<?xml version="1.0" encoding="UTF-8"?>
<svg id="Icon_Black" data-name="Icon Black" xmlns="http://www.w3.org/2000/svg" viewBox="0 0 72 72">
  <defs>
    <style> 
      .cls-1 {
        fill: #fff;
      }
    </style>
  </defs>
  <g id="Icon-2" data-name="Icon">
    <path class="cls-1" d="M51,30c0,1.1-.9,2-2,2h-3.7l-1.55,9h3.25c1.1,0,2,.9,2,2s-.9,2-2,2h-3.94l-1.09,6.34c-.17,.97-1.0099,1.66-1.97,1.66-.11,0-.22-.01-.34-.03-1.09-.19-1.8199-1.22-1.6299-2.31l.98-5.66h-3.58l2.49-4h1.78l.68-3.97,3.12-5.03,2.49-4h3.01c1.1,0,2,.9,2,2Z"/>
    <path class="cls-1" d="M36.57,28l-2.49,4h-1.78l-.68,3.97-3.12,5.03-2.49,4h-3.01c-1.1,0-2-.9-2-2s.9-2,2-2h3.7l1.55-9h-3.25c-1.1,0-2-.9-2-2s.9-2,2-2h3.94l.34-2h4.06l-.35,2h3.58Z"/>
    <path class="cls-1" d="M47,22c0,.1-.01,.2-.03,.3,0,.08-.02,.16-.05,.24-.02,.08-.05,.16-.08,.24,0,0,0,.01-.01,.02-.04,.09-.08,.17-.13,.25-.02,.03-.04,.06-.06,.09l-17.94,28.91c-.38,.62-1.03,.95-1.7,.95-.36,0-.73-.1-1.05-.3-.94-.58-1.23-1.82-.65-2.75l16.11-25.95h-15.41c-1.1,0-2-.9-2-2s.9-2,2-2h19c.1,0,.2,.01,.3,.03,.08,0,.16,.02,.24,.05,.08,.02,.16,.05,.2401,.08,0,0,.0099,0,.02,.01,.09,.04,.17,.08,.25,.13s.15,.1,.22,.16c.05,.04,.09,.08,.14,.13,.05,.05,.09,.09,.13,.14,.03,.03,.06,.07,.08,.1,.09,.1201,.16,.25,.22,.39,.0699,.17,.12,.35,.14,.54,.01,.08,.02,.16,.02,.24Z"/>
  </g>
</svg>